<svg width="40" height="40" viewBox="0 0 40 40" fill="none" xmlns="http://www.w3.org/2000/svg">
<path d="M10.6856 12.472C11.5209 12.472 12.198 11.7949 12.198 10.9597C12.198 10.1244 11.5209 9.44727 10.6856 9.44727C9.85034 9.44727 9.17322 10.1244 9.17322 10.9597C9.17322 11.7949 9.85034 12.472 10.6856 12.472Z" fill="#0648D7"/>
<path d="M5.43356 16.2114C6.99665 17.7749 8.6294 18.7579 10.2876 19.1341C10.7667 19.2411 11.2394 19.2946 11.7055 19.2946C13.4878 19.2946 15.1697 18.5134 16.7217 16.9616C18.669 15.0143 19.3945 12.8547 18.8779 10.5422C18.5027 8.88581 17.5195 7.25306 15.9558 5.68917C14.3921 4.12548 12.7593 3.14228 11.1015 2.7664C8.79179 2.25063 6.63123 2.97594 4.68358 4.9234C2.72566 6.88113 1.99462 9.04583 2.51118 11.3585C2.88666 13.0151 3.86986 14.6481 5.43356 16.2114ZM6.46194 6.70177C7.20896 5.95475 8.02287 5.58045 8.91235 5.58045C10.2568 5.58045 11.7738 6.43639 13.4912 8.15378C14.9313 9.59396 15.7764 10.9219 16.0033 12.1006C16.2229 13.2418 15.8761 14.2501 14.9432 15.183C14.0046 16.1212 12.9914 16.4708 11.8479 16.255C10.6668 16.0308 9.33775 15.1869 7.89777 13.7468C5.04465 10.8934 4.57486 8.58905 6.46194 6.70177Z" fill="#0648D7"/>
<path d="M10.2886 20.841C8.63201 21.2165 6.99926 22.1999 5.43557 23.7634C3.87188 25.3273 2.88868 26.96 2.5128 28.6177C1.99663 30.929 2.72234 33.0883 4.6698 35.0356C6.22185 36.5876 7.90334 37.3686 9.68624 37.3686C10.1523 37.3686 10.6256 37.3151 11.1049 37.208C12.7619 36.8321 14.3947 35.8489 15.9578 34.2856C17.5215 32.7221 18.5047 31.0894 18.8806 29.4314C19.3967 27.1199 18.6657 24.9552 16.708 22.9974C14.7607 21.0504 12.6019 20.3243 10.2886 20.841ZM13.4936 31.8212C12.0538 33.261 10.7247 34.1049 9.54359 34.3292C8.39938 34.5461 7.38678 34.196 6.44837 33.2572C5.51548 32.3243 5.16861 31.3159 5.38821 30.1746C5.61492 28.9961 6.46021 27.6682 7.90018 26.228C9.61778 24.5104 11.1345 23.6547 12.4792 23.6547C13.3685 23.6547 14.1824 24.029 14.9296 24.7758C16.8167 26.6631 16.3469 28.9677 13.4936 31.8212Z" fill="#0648D7"/>
<path d="M34.6109 23.7654C33.0474 22.2017 31.4146 21.2185 29.7568 20.8427C27.4459 20.3267 25.2861 21.052 23.3389 22.9995C21.3809 24.9574 20.6499 27.1219 21.1661 29.4334L21.1665 29.4346C21.5423 31.0918 22.5255 32.7246 24.0888 34.2877C25.6521 35.8511 27.2849 36.8342 28.9431 37.2104C29.4222 37.3174 29.8947 37.3706 30.3608 37.3706C32.1427 37.3706 33.825 36.5895 35.3768 35.0376C37.3243 33.0904 38.05 30.9308 37.5334 28.6185C37.1579 26.9619 36.1747 25.3291 34.6109 23.7654ZM33.5983 33.2589C32.6596 34.1977 31.647 34.5479 30.5028 34.3309C29.3217 34.1067 27.9928 33.2628 26.5531 31.8228C23.6995 28.9693 23.2299 26.6647 25.117 24.7774C25.8698 24.0247 26.6713 23.6538 27.5524 23.6538C27.7634 23.6538 27.979 23.6751 28.1996 23.7175C29.3784 23.9442 30.7063 24.7895 32.1466 26.2297C33.5866 27.6696 34.4317 28.9975 34.6586 30.1763C34.878 31.3177 34.5311 32.326 33.5983 33.2589Z" fill="#0648D7"/>
<path opacity="0.2" d="M34.3542 18.1883L29.2525 12.013L28.8045 11.4713L22.6575 3.96875H26.2412L30.8701 9.95451L31.2932 10.4962L37.8384 18.1883H34.3542ZM22.4086 18.1883L28.3814 10.7129L30.0488 12.5276L25.7683 18.1883H22.4086ZM31.4425 11.39L29.9742 9.4399L34.1551 3.96875H37.5397L31.4425 11.39Z" fill="url(#paint0_linear_13726_17193)"/>
<path opacity="0.6" d="M33.5986 18.1883L28.4968 12.013L28.0489 11.4713L21.9019 3.96875H25.4856L30.1145 9.95451L30.5376 10.4962L37.0827 18.1883H33.5986ZM21.653 18.1883L27.6258 10.7129L29.2932 12.5276L25.0127 18.1883H21.653ZM30.6869 11.39L29.2186 9.4399L33.3995 3.96875H36.7841L30.6869 11.39Z" fill="url(#paint1_linear_13726_17193)"/>
<path d="M32.8413 18.1883L27.7395 12.013L27.2916 11.4713L21.1446 3.96875H24.7282L29.3572 9.95451L29.7802 10.4962L36.3254 18.1883H32.8413ZM20.8957 18.1883L26.8685 10.7129L28.5359 12.5276L24.2554 18.1883H20.8957ZM29.9296 11.39L28.4612 9.4399L32.6422 3.96875H36.0268L29.9296 11.39Z" fill="url(#paint2_linear_13726_17193)"/>
<defs>
<linearGradient id="paint0_linear_13726_17193" x1="30.1235" y1="3.96875" x2="30.1235" y2="18.1883" gradientUnits="userSpaceOnUse">
<stop stop-color="#EE57AC"/>
<stop offset="1" stop-color="#EE577B"/>
</linearGradient>
<linearGradient id="paint1_linear_13726_17193" x1="29.3679" y1="3.96875" x2="29.3679" y2="18.1883" gradientUnits="userSpaceOnUse">
<stop stop-color="#EE57AC"/>
<stop offset="1" stop-color="#EE577B"/>
</linearGradient>
<linearGradient id="paint2_linear_13726_17193" x1="28.6106" y1="3.96875" x2="28.6106" y2="18.1883" gradientUnits="userSpaceOnUse">
<stop stop-color="#EE57AC"/>
<stop offset="1" stop-color="#EE577B"/>
</linearGradient>
</defs>
</svg>
