<?xml version="1.0" encoding="utf-8"?>
<!-- Generator: Adobe Illustrator 27.5.0, SVG Export Plug-In . SVG Version: 6.00 Build 0)  -->
<svg version="1.1" id="Ñëîé_1" xmlns="http://www.w3.org/2000/svg" xmlns:xlink="http://www.w3.org/1999/xlink" x="0px" y="0px"
	 viewBox="0 0 2000 2000" style="enable-background:new 0 0 2000 2000;" xml:space="preserve">
<rect style="fill:#FFFFFF;" width="2000" height="2000"/>
<g>
	<g>
		<g>
			<path style="fill:#ED2200;" d="M759.418,1165.047c0,0,275.934-129.005,519.149-215.427
				c247.06-87.8,532.295-19.386,532.295-19.386s13.528-704.489-665.803-689.092c-277.734,6.292-313.956,264.316-415.006,287.429
				c-200.454,45.809-302.451,799.885-302.451,799.885l4.407,45.274c0,0,385.059-377.029,313.238-603.531L759.418,1165.047z"/>
			<path style="fill:#ED2200;" d="M453.098,1299.91c11.26-40.957,74.774-155.549,106.18-214.123
				c27.545-71.141,70.75-186.488,93.247-254.763c7.122-20.26,60.125-106.125,82.654-144.005
				c10.766-26.654,27.314-84.473,32.861-114.931l53.652-106.414C860.15,420.27,946.19,338.654,994.18,303.44
				c-0.004-0.004,101.248-42.793,101.248-42.793l26.824,0.676c-0.209,0.119-44.905,42.385-45.165,42.401
				c-92.7,45.137-179.457,141.16-220.028,233.791c-14.067,36.487-19.503,139.675-20.223,154.584l43.101,58.82
				c45.173-16.107,52.391-30.839,84.016-67.114c27.009-31.196,54.843-63.375,83.229-84.268c29.46-11.25,98.419-34.08,129.911-35.585
				c-0.001-0.004,41.052,6.128,41.052,6.128l14.286,30.883l-10.747,19.553c-23.12,23.873-67.601,50.896-98.808,72.056
				c-45.719,37.419-114.177,108.181-155.454,155.844c-28.137,45.578-57.324,107.449-91.933,154.743
				c-29.081,39.951-53.122,60.256-76.826,63.081c0,0-14.766-21.554-14.766-21.554c-2.44-3.562-3.065-4.474-2.997-5.142
				c-2.524-20.053-2.815-44.124-3.096-67.412c-0.287-23.814-0.584-48.436-3.268-68.711c-6.271-14.752-9.324-25.058-11.348-31.889
				c-2.181-7.364-3.276-11.06-5.977-12.785c-4.399-3.106-22.583-2.531-32.383-3.658c0,0.001-18.903,35.901-18.903,35.901
				c-37.78,148.278-151.559,309.121-254.687,416.148L453.098,1299.91z"/>
			<path style="fill:#B91000;" d="M1220.077,556.268c-5.603-1.333-11.644-1.755-17.335-2.002
				c-21.836-0.949-43.785-1.894-65.491,0.665c-57.564,6.786-109.145,37.472-158.749,67.457
				c-16.195,9.79-32.444,19.616-47.227,31.431c-21.64,17.293-44.829,43.498-74.316,41.058
				c-12.006-48.092-2.366-85.122,6.512-131.801c3.622-19.043,23.06-148.472,33.943-152.317
				c-28.928,10.22-50.297,34.994-66.494,61.053c-17.652,28.401-30.864,59.555-39.011,91.987
				c-8.213,32.693-11.303,66.598-21.086,98.856c-18.094,59.663-56.978,109.715-97.597,155.631
				c-30.517,34.496-40.068,76.151-55.845,119.637c0.002-0.002-56.301,148.683-56.304,148.687
				c-38.37,72.088-96.718,152.785-108.07,234.866c12.339-15.448,24.677-30.896,37.016-46.343
				c14.482-18.131,29.01-36.314,45.596-52.542c14.26-13.952,29.987-26.405,43.498-41.084c14.763-16.039,26.639-34.473,38.437-52.803
				c48.774-75.782,98.404-153.55,118.506-241.401c1.298-5.674,3.022-12.121,8.242-14.711c15.622-7.74,31.899,50.896,34.747,63.85
				c7.187,32.688-6.893,71.13,3.87,103.326c0.001,0.002,16.688,24.361,16.688,24.361c63.985-8.473,133.608-166.803,166.237-216.898
				c57.498-88.277,160.474-160.139,242.517-222.824c9.631-7.359,19.99-14.293,26.772-24.34c6.781-10.046,9.047-24.36,1.694-33.996
				C1232.732,560.705,1226.712,557.847,1220.077,556.268z"/>
			<path style="fill:#020202;" d="M428.253,1383.753l-5.385-56.052c3.983-29.508,104.443-757.404,305.681-803.415
				c34.451-7.883,62.281-46.08,94.694-90.557c58.924-80.859,140.678-193.038,321.456-197.179
				c178.937-4.066,327.567,43.693,440.506,141.275c234.755,202.822,230.734,549.08,230.667,552.483l-0.106,5.526l-6.263-1.501
				c-2.827-0.678-286.415-66.946-528.92,19.196c-240.19,85.311-515.911,213.851-518.636,215.125l-7.112,3.325l-9.153-252.901
				c-20.307,71.034-63.45,152.622-128.716,243.762c-85.744,119.73-180.308,212.688-181.247,213.607L428.253,1383.753z
				 M432.386,1328.832c0,0,3.359,34.62,3.365,34.68c-0.717-7.387,36.704-38.801,41.999-44.629
				c23.247-25.586,45.818-51.792,67.646-78.599c55.041-67.594,106.494-139.234,146.514-216.855
				c18.647-36.166,34.916-73.895,45.532-113.249c5.566-20.631,4.301-35.308,3.601-55.798c-0.814-23.828,5.053-49.224,9.133-72.606
				c0.549-3.149,2.032-7.114,5.227-7.014c9.507,23.703,3.214,55.71,0.079,80.351c-2.006,15.769-1.347,29.83-0.643,45.534
				c1.227,27.402,1.952,54.836,2.928,82.249c2.011,56.493,4.022,112.986,6.033,169.479c0.068,1.921,0.137,3.841,0.205,5.762
				c44.684-20.659,293.387-134.518,512.543-212.424c225.289-80.097,485.509-30.327,529.289-20.991
				c-0.539-44.399-12.32-354.387-227.866-540.465c-110.821-95.674-256.819-142.496-432.641-138.521
				c-175.568,4.004-252.463,109.43-313.495,193.085c-33.498,45.917-62.26,85.344-100.283,94.036
				C538.237,577.015,435.138,1308.919,432.386,1328.832z"/>
		</g>
	</g>
	<g>
		<path style="fill:#FFFFFF;" d="M748.921,1237.676c-10.735-19.284-0.991-55.974-9.698-76.447
			c-3.495-8.203-6.937-34.035-2.961-42.595c-17.233-29.806-5.603-23.13-26.402-55.303c31.409-36.828,32.192-100.125,88.857-115.45
			c18.543-51.555,60.817-72.81,97.549-99.795c33.691-30.773,33.473-103.577,68.836-129.612
			c70.707-52.095,156.076-102.366,228.563-137.565c36.271-17.603,90.403-29.174,123.383-46.153
			c28.186-22.939,84.773,0.132,112.625-17.856c51.715,11.636,51.191-5.2,97.186,5.362c9.2-11.86,24.997-14.751,41.807-15.493
			c16.823-0.758,38.063,4.824,48.072-2.655c32.739-24.418,90.377,5.239,119.838,25.125c39.348,26.594,69.178,75.104,86.687,123.193
			c26.117,71.676,11.005,151.404,9.557,228.701c-0.313,16.432,0.016,32.765,1.458,48.884c3.402,37.689,13.398,93.03-29.488,63.859
			c-18.127-12.326-49.713-50.014-73.006-39.327c-25.038,15.502-36.6-21.2-68.076-6.901c-20.306,1.484-85.766,21.185-106.435,22.853
			c-13.59,10.463-23.444,25.699-61.343,5.87c-10.321,14.438-72.394-35.619-58.024,8.696c-1.183,24.978-50.136-9.931-51.741,13.026
			c-19.315,17.603-39.766,42.463-86.834,39.603c-44.714-2.714-74.202-5.485-107.026,24.728
			c-34.246,31.51-115.391,42.509-152.284,69.223c-47.458,34.358-71.748,94.1-122.639,122.34
			c-11.482,6.371-18.099,37.467-25.935,49.229c-12.016,18.054-49.656,36.786-64.469,31.362
			c-14.884,46.086-7.533-53.143-28.264-58.468C759.871,1266.107,748.921,1237.676,748.921,1237.676z"/>
		<path style="fill:#DBEBEB;" d="M940.357,982.954c-4.422-10.523-16.397-18.603-27.563-14.838
			c6.109-11.946,20.773-28.346,24.456-40.011c4.96-15.71-6.091-15.903-9.336-31.093c-3.961-18.601,27.992-23.857,34.693-41.658
			c5.261-13.981-7.676-30.192-1.121-43.438c6.553-13.243,30.36-19.436,42.688-25.54c-2.959-8.638-3.732-18.015-2.226-27.021
			c0.227-1.36,0.56-2.811,1.587-3.731c1.153-1.033,2.846-1.112,4.394-1.136c6.161-0.097,12.323-0.194,18.484-0.29
			c-1.525-8.858-1.634-20.497,6.671-23.937c7.92-3.281,19.066,3.612,24.677-2.87c3.809-4.399,1.404-11.613,4.316-16.651
			c2.558-4.426,8.195-5.697,12.947-7.584c18.082-7.18,19.124-21.096,23.235-37.411c2.003-7.949,5.345-38.364,12.871-42.455
			c-47.636,25.892-96.318,54.289-139.42,88.853c-38.262,30.682-36.465,73.387-62.147,113.573
			c-10.546,16.503-26.065,28.029-40.762,39.967c-27.695,22.498-62.849,47.315-72.919,82.197
			c-40.096,14.3-58.711,80.098-88.365,117.082c24.163,25.51,31.344,71.633,33.399,108.633c2.055,37,3.537,74.437,32.241,93.234
			c7.346,4.81,21.768,6.857,28.525,12.639c14.282,12.222,12.218,32.93,14.463,54.244c0.532,5.049,5.582,8.345,10.42,6.807
			c23.553-7.489,45.999-17.166,60.96-38.863c7.073-10.258,11.502-22.488,18.238-33.023c12.975-20.293,33.378-32.77,50.34-49.015
			c26.033-24.934,44.314-59.192,72.181-81.534c38.623-30.964,89.677-34.57,132.299-58.153
			c21.937-12.138,41.691-29.601,65.138-37.504c35.893-12.099,75.401-0.163,111.686-10.71c-2.697-8.78-8.4-16.226-15.754-22.04
			c-15.326-12.118-37.82-17.143-55.205-12.365c-9.783,2.689-19.705,7.952-29.515,5.362c-5.494-1.45-10.401-5.308-16.084-5.317
			c-10.412-0.016-19.204,12.814-28.941,9.126c-3.41-1.291-5.824-4.411-9.117-5.978c-14.953-7.114-27.078,20.896-43.441,18.357
			c-6.412-0.995-11.288-6.649-17.65-7.927c-17.778-3.571-28.071,27.076-46.006,24.399c-4.7-0.701-8.752-3.736-13.385-4.79
			c-12.864-2.926-23.565,9.542-30.862,20.533c-17.81-6.984-40.289,1.94-48.46,19.239l-9.682-11.145
			c-6.424,3.982-12.847,7.965-19.271,11.947c3.216-9.18,6.478-18.687,5.741-28.386c-0.79-10.392-7.434-21.145-18.053-22.592
			c-0.799-0.109-1.598-0.27-2.34-0.585c-8.908-3.775-2.334-13.319,1.019-20.403C942.881,993.909,942.535,988.135,940.357,982.954"/>
		<path style="fill:#020202;" d="M822.15,1344.592c-1.158,0.179-2.356,0.171-3.615-0.118c-0.556-0.128-1.11-0.305-1.584-0.622
			c-0.655-0.437-1.114-1.104-1.556-1.755c-1.816-2.671-3.326-4.745-3.929-7.923c-0.609-3.214-0.556-6.448-0.985-9.68
			c-1.956-14.757-5.598-42.224-12.905-44.102c-38.893-10.014-51.327-37.428-52.737-40.837c-6.065-11.125-6.044-26.754-6.026-41.874
			c0.018-12.713,0.036-25.862-3.739-34.742c-3.576-8.391-7.092-32.485-3.739-43.889c-7.387-13.021-9.22-19.15-10.846-24.583
			c-1.328-4.437-2.935-8.699-5.029-12.838c-3.411-6.741-10.196-13.243-8.165-21.324c0.496-1.973,2.136-3.49,3.401-5.161
			c3.091-4.083,5.937-8.348,8.633-12.701c5.55-8.959,10.454-18.297,15.36-27.618c7.66-14.552,15.331-29.29,25.449-42.326
			c4.986-6.425,10.581-12.414,16.982-17.452c4.721-3.716,10.234-6.182,15.186-9.544c4.785-3.248,5.442-7.665,7.915-12.745
			c4.902-10.072,11.09-19.477,18.297-28.046c13.533-16.09,30.348-28.853,47.486-40.841c2.863-2.003,5.739-3.987,8.614-5.973
			c6.213-4.288,12.63-8.72,18.763-13.217c15.333-14.133,23.583-38.505,31.56-62.077c8.886-26.253,18.073-53.4,37.466-67.676
			c66.466-48.968,152.173-100.553,229.268-137.99c18.081-8.773,40.547-16.08,62.276-23.143c22.72-7.388,44.19-14.368,60.607-22.756
			c16.224-12.893,39.89-12.12,62.771-11.375c10.57,0.343,21.292,0.865,31.81-0.545c4.417-0.592,9.01-1.479,13.097-3.321
			c1.706-0.769,3.043-1.892,4.877-2.247c5.182-1.002,10.924,0.639,16.017,1.459c5.156,0.83,10.354,1.43,15.573,1.654
			c7.417,0.318,14.75-0.314,22.107-1.188c11.282-1.341,22.93-2.736,44.351,1.868c10.93-11.957,27.927-14.32,43.306-14.997
			c5.775-0.27,12.024,0.189,18.04,0.628c10.887,0.795,22.156,1.613,27.511-2.387c38.813-28.956,105.567,11.814,125.103,24.998
			c36.03,24.35,68.24,70.039,88.377,125.351c19.927,54.679,16.196,114.532,12.589,172.415c-1.183,19.029-2.411,38.703-2.766,57.862
			c-0.342,17.924,0.129,33.762,1.441,48.416c0.329,3.657,0.721,7.487,1.125,11.39c2.806,27.345,5.71,55.622-7.818,63.483
			c-7.089,4.123-16.851,1.852-29.835-6.982c-4.742-3.22-10.281-8.034-16.152-13.129c-16.65-14.46-37.36-32.43-52.164-25.934
			c-14.396,8.76-25.54,2.666-35.376-2.725c-9.757-5.349-18.976-10.408-32.949-4.065c-11.384,1.116-33.201,6.516-54.303,11.738
			c-21.193,5.248-41.263,10.215-52.262,11.377c-1.209,0.963-2.391,1.958-3.579,2.954c-11.656,9.775-24.815,20.821-58.791,3.991
			c-7.074,4.444-19.238-0.123-32.009-4.932c-7.875-2.965-21.075-7.92-23.703-5.488c-0.796,0.738-1.423,4.182,1.245,12.412
			c-0.023,6.364-1.73,10.004-4.865,12.368c-6.444,4.855-16.818,2.593-26.856,0.411c-4.323-0.942-12.33-3.961-16.494-1.589
			c-4.094,2.332-7.34,8.806-10.828,12.103c-17.816,16.836-40.01,37.808-84.094,35.105l-3.856-0.237
			c-41.758-2.556-69.36-4.257-99.823,23.778c-19.269,17.73-52.257,28.996-84.156,39.894c-26.841,9.171-52.198,17.83-68.536,29.661
			c-21.164,15.322-38.036,36.338-54.357,56.661c-19.811,24.671-40.295,50.187-68.738,65.969
			c-5.749,3.189-11.041,16.841-15.293,27.815c-3.019,7.795-5.874,15.161-9.089,19.987c-7.563,11.363-20.299,19.664-32.287,25.674
			c-6.356,3.186-13.058,5.877-20.012,7.428c-3.408,0.76-7.122,0.434-10.43,1.641C829.001,1341.654,825.772,1344.033,822.15,1344.592
			z M753.124,1236.096c0.449,1.136,10.828,26.486,46.725,35.725c8.903,2.292,12.249,13.393,14.281,21.159
			c1.725,6.594,2.837,13.345,3.84,20.081c0.809,5.431-0.068,15.414,5.056,18.958c3.928,2.717,9.851-1.193,13.935-2.115
			c5.026-1.135,10.7-1.55,15.493-3.506c13.04-5.321,27.25-13.64,35.228-25.612c2.681-4.024,5.363-10.951,8.209-18.286
			c5.261-13.577,10.699-27.615,19.277-32.375c26.902-14.928,45.943-38.639,66.101-63.745c16.686-20.783,33.94-42.274,56.086-58.303
			c17.433-12.623,43.407-21.497,70.913-30.894c31.018-10.595,63.085-21.55,80.962-37.997
			c33.291-30.635,64.001-28.754,106.528-26.148l3.848,0.235c40.213,2.433,59.901-16.203,77.306-32.65
			c1.685-1.589,3.34-3.154,4.981-4.672c0.591-3.395,2.139-6.035,4.626-7.865c6.159-4.536,15.742-2.448,25.894-0.239
			c7.271,1.584,16.321,3.556,19.443,1.206c0.321-0.24,1.237-0.932,1.499-3.466c-2.095-6.69-3.967-15.718,1.41-20.717
			c6.729-6.27,19.541-1.452,33.095,3.652c5.328,2.006,10.713,4.127,16.273,5.404c5.508,1.265,10.79-0.262,16.499,0.334
			c5.492,0.196,11.959,4.943,17.57,6.243c4.382,1.015,8.954,1.484,13.413,0.691c7.097-1.263,12.618-5.699,17.994-10.2
			c1.615-1.352,3.224-2.703,4.892-3.984l1.058-0.817l1.343-0.11c9.898-0.796,31.399-6.122,52.195-11.269
			c21.896-5.42,42.611-10.547,53.466-11.52c17.723-7.699,30.255-0.84,40.357,4.698c9.534,5.23,16.437,9.015,26.464,2.806
			c20.643-9.511,43.941,10.705,62.65,26.948c5.661,4.916,11.01,9.56,15.312,12.483c9.374,6.384,16.543,8.755,20.145,6.643
			c8.57-4.98,5.603-33.87,3.438-54.965c-0.405-3.94-0.801-7.804-1.135-11.502c-1.338-14.972-1.818-31.116-1.476-49.359
			c0.365-19.346,1.597-39.12,2.788-58.238c3.549-56.989,7.222-115.919-12.078-168.884c-19.518-53.6-50.496-97.716-84.999-121.037
			c-13.013-8.78-79.674-51.273-114.574-25.244c-8.067,6.024-20.469,5.118-33.61,4.164c-5.759-0.422-11.705-0.851-16.974-0.615
			c-9.387,0.414-19.248,1.313-27.834,5.438c-3.827,1.839-6.058,4.95-9.381,7.123c-3.58,2.342-9.881,1.881-13.851,1.166
			c-4.865-0.876-9.777-1.517-14.716-1.769c-7.111-0.362-14.144,0.274-21.198,1.115c-7.31,0.872-14.608,1.544-21.98,1.327
			c-5.131-0.151-10.247-0.654-15.326-1.389c-5.11-0.739-11.939-3.129-17.036-1.456c-1.573,0.516-2.976,1.644-4.554,2.236
			c-4.526,1.696-9.465,2.515-14.246,3.072c-10.517,1.225-21.163,0.802-31.719,0.458c-21.4-0.697-43.518-1.413-57.113,9.652
			l-0.783,0.512c-17.121,8.813-39.098,15.961-62.365,23.525c-21.431,6.971-43.594,14.175-61.115,22.678
			c-76.628,37.21-161.811,88.474-227.857,137.137c-17.135,12.615-25.482,37.274-34.318,63.382
			c-8.365,24.719-17.018,50.278-34.153,65.929c-6.661,4.929-13.208,9.448-19.541,13.817c-16.52,11.398-33.141,22.935-47.179,37.392
			c-7.271,7.488-13.786,15.712-19.161,24.668c-5.624,9.369-7.82,20.135-17.226,26.498c-3.212,2.173-6.985,3.567-10.221,5.81
			c-6.465,4.482-12.082,10.073-17.036,16.162c-10.667,13.11-18.444,28.337-26.282,43.223c-4.664,8.856-9.327,17.723-14.52,26.285
			c-2.513,4.144-5.147,8.217-7.97,12.156c-4.875,6.802-0.624,12.791,2.593,18.906c2.659,5.054,4.7,10.253,6.338,15.714
			c1.127,3.756,2.394,7.434,4,11.017c1.343,2.996,2.851,5.919,4.424,8.8c4.07,7.454,1.094,16.571,1.617,24.713
			c0.485,7.536,1.215,15.996,4.21,23.023c4.478,10.529,4.46,24.585,4.442,38.177c-0.016,14.115-0.039,28.708,5.053,37.857
			L753.124,1236.096z"/>
	</g>
	<g>
		<path style="fill:#FFFFFF;" d="M171.335,1446.634c-2.534,20.94-2.457,41.821,1.286,63.151c0.33,1.883,0.706,3.815,1.747,5.419
			c3.447,5.309,6.494,10.093,8.239,16.373c1.808,6.507,2.312,13.635,3.272,20.307c2.176,15.116,4.08,30.322,7.379,45.246
			c4.45,21.273,12.959,21.026,17.294,52.761c7.566,10.467,19.473-2.9,28.181,8.822c0.493,65.502,18.321,21.33,28.734,29.247
			c14.64-19.828,16.28,49.224,33.798,16.823c9.203,22.182,29.64-26.579,35.572,22.284c13.939-3.665,16.172,71.867,40.546,3.571
			c33.967-39.304,55.868-6.26,79.894,1.221c12.515,0.334,29.131-29.061,43.436-46.64c23.468-77.859,27.438-31.13,29.515,24.106
			c9.658,5.45,20.895-3.639,31.828-15.139c3.645-3.834,9.365,2.9,13.22,2.485c9.224-0.992,9.279-14.465,15.569-18.955
			c3.246,3.953,0.749,16.562,8.621,11.377c2.589-1.705,4.162-5.574,6.113-7.919c0.438-0.526,5.042-4.273,4.988-4.079
			c4.682-16.904,8.713-39.008,23.128-50.66c1.21,3.426-0.307,9.343,1.854,12.212c3.806-3.546,4.663-12.795,5.951-17.616
			c1.007-3.77,1.916-7.588,3.097-11.309c0.195-0.615,1.783-3.948,1.753-3.638c-3.746,38.835,11.002-50.755,14.583-74.209
			c2.857-18.708,7.731-58.264,2.846-40.353c-0.435,1.605-0.855,3.12-1.833,4.394c-1.874-3.632-1.038-9.468-1.048-13.555
			c-0.019-8.1,0.142-16.122-0.45-24.199c-4.851-2.343-6.976,3.844-11.711,0.173c-3.32-2.573-4.676-8.722-5.741-12.476
			c-6.046-21.312-4.29-43.423-7.983-64.966c-2.642-15.41-6.657-32.218-16.882-44.543c-7.601-9.163-20.96-11.124-27.488-20.164
			c-2.701-3.74-2.56-8.982-7.458-6.372c-1.812,0.966-3.276,4.034-4.366,5.672c-3.147,4.728-5.516,10.385-9.351,14.615
			c-12.183,13.436-9.359-32.133-9.236-36.057c-0.568-8.088-0.453-37.249-12.638-39.235c-12.055-1.965-14.338,20.846-26.753,15.038
			c-3.429-1.604-6.591-5.025-9.434-7.471c-6.125-5.271-12.099-11.109-19.465-14.642c-6.003-2.875-12.483-4.858-19.16-5.172
			c-5.987-0.282-11.126,2.028-16.952,1.799c-10.553-0.414-18.487-2.634-27.304,4.95c-11.783,10.137-20.116,25.038-33.362,33.409
			c-16.931,10.701-21.25-14.324-22.936-26.184c-0.632-4.448-5.315-7.156-9.45-5.401c-23.875,10.134-40.249-19.343-64.73,17.551
			c-9.59-5.766-21.169,5.443-32.234,17.876c-11.029,12.422-21.599,26.067-29.135,25.156c-11.006,21.846-17.531,19.435-28.271,50.366
			c-5.323-4.608-8.651-16.537-16.84,9.882c-2.919,9.417-3.285,20.318-9.184,28.504c-4.845,6.723-5.783,15.769-7.406,23.794
			C173.464,1431.746,172.235,1439.194,171.335,1446.634z"/>
		<path style="fill:#020202;" d="M359.921,1763.69c-8.063,0-11.848-9.361-15.859-19.27c-1.726-4.271-4.543-11.246-6.54-12.99
			c-0.786-0.686-3.102,1.449-4.239-0.286c-0.148-0.226-0.221-0.492-0.291-0.753c-1.552-5.821-1.989-12.104-4.314-17.734
			c-0.504-1.221-1.272-3.269-2.614-3.868c-1.013-0.452-4.658,1.548-6.607,2.612c-3.283,1.787-6.728,4.669-10.616,4.858
			c-2.117,0.103-2.834-1.147-4.559-1.857c-1.624-0.668-4.197,0.37-5.524,1.328c-1.946,1.403-4.138,2.3-6.575,2.191
			c-7.439-0.334-10.724-8.429-14.527-17.801c-1.121-2.765-2.769-6.83-4.245-9.394c-0.443-0.769-1.534-0.812-2.064-0.1
			c-0.274,0.369-0.539,0.745-0.806,1.12c-0.296,0.416-0.612,0.849-1.072,1.071c-0.685,0.331-1.501,0.111-2.207-0.172
			c-0.803-0.322-1.965-1.293-2.794-1.373c-0.553-0.053-1.141,0.388-1.598,0.657c-1.376,0.81-2.679,1.752-3.986,2.669
			c-4.233,2.974-9.5,6.672-15.194,4.262c-5.807-2.46-9.497-9.779-9.862-38.231c-0.004-0.316-0.124-0.633-0.349-0.856
			c-2.254-2.236-4.553-2.088-9.07-1.573c-5.038,0.577-12.651,1.445-18.008-5.961l-0.604-0.837l-0.136-0.985
			c-2.41-17.645-6.111-24.941-9.69-31.997c-2.737-5.395-5.566-10.975-7.559-20.495c-2.663-12.056-4.665-26.142-6.604-39.767
			c-1.059-7.442-0.56-36.291-11.259-35.547c-3.45,0.24-4.509,1.808-6.226-2.121c-1.323-3.027-1.048-7.216-0.808-10.421
			c0.539-7.187,2.764-14.156,2.928-21.385c0.021-0.938-0.002-1.916-0.426-2.754c-0.503-0.993-1.486-1.635-2.243-2.451
			c-2.193-2.367-2.301-5.943-2.158-9.166c0.535-11.974,3.433-23.633,5.534-35.308c1.605-8.923,3.281-17.865,5.385-26.686
			c1.196-5.016,2.159-10.998,6.104-14.683c0.87-0.813,2.679-2.504,8.085-26.466c0.007-0.033,0.017-0.067,0.026-0.099
			c4.314-13.947,7.634-19.086,12.765-19.934c2.322-0.384,4.201,0.215,5.781,1.228c0.638,0.409,1.496,0.113,1.781-0.589
			c5.121-12.614,9.433-18.318,13.952-24.296c3.089-4.087,5.619-9.641,9.435-13.038c4.212-3.749,8.657-5.684,12.53-9.895
			c4.788-5.206,9.776-10.18,14.431-15.524c1.489-1.712,2.995-3.44,4.507-5.144c7.999-8.984,20.727-23.252,33.416-20.897
			c0.472,0.088,0.955-0.09,1.242-0.475c15.987-21.458,30.176-18.214,42.751-15.337c7.04,1.611,13.024,2.344,20.069,0.52
			c28.551-7.392,9.524,28.873,27.114,33.59c4.841,1.266,16.092-11.235,23.525-19.525c11.244-12.539,21.954-24.292,32.931-23.855
			c3.254,0.155,6.177,1.324,8.733,3.491c0.35,0.297,0.829,0.386,1.256,0.219c13.524-5.287,27.078-4.517,41.31,2.299
			c6.679,3.205,12.654,8.436,18.431,13.495c4.006,3.511,7.859,6.885,11.637,9.336c0.549,0.357,1.282,0.199,1.665-0.331
			c7.081-9.795,14.755-17.573,23.112-15.759c9.355,2.006,13.992,14.483,16.008,43.065c0.003,0.042,0.004,0.087,0.003,0.129
			c-0.478,15.673-0.073,24.598,0.525,29.675c0.136,1.15,1.641,1.491,2.27,0.518c1.184-1.834,2.367-3.796,3.29-5.324
			c5.45-9.046,9.342-15.573,15.746-14.401c4.831,0.908,6.42,5.811,7.126,11.147c0.062,0.465,0.377,0.857,0.821,1.01
			c20.742,7.201,37.115,18.108,44.945,63.703c0.008,0.048,0.014,0.097,0.017,0.145c1.011,17.928,2.253,36.017,5.463,53.711
			c0.749,4.125,1.256,8.997,2.956,12.871c2.55,5.813,9.404,5.348,13.339,9.465c4.996,5.228,4.207,15.008,4.187,21.639
			c-0.003,1.163-0.007,2.377-0.006,3.596c0.001,0.588,0.424,1.083,1.001,1.199c4.762,0.952,5.951,4.069-1.01,49.662
			c-11.652,76.302-14.229,86.545-18.345,87.566c-0.442,0.109-0.771,0.494-0.888,0.934c-5.034,18.902-6.171,22.754-11.859,21.986
			c-2.095-0.297-3.514-0.667-4.266-3.074c-0.348-1.115-1.879-1.217-2.335-0.142c-2.497,5.887-4.681,11.899-6.669,17.979
			c-1.995,6.099-4.202,12.331-5.581,18.6c-0.534,2.427-0.533,4.027-2.997,5.36c-1.319,0.714-1.742,0.222-3.032,1.455
			c-0.77,0.735-1.233,1.921-1.854,2.785c-3.74,5.208-7.617,10.588-13.423,9.105c-2.024-0.518-3.66-1.577-4.906-4.051
			c-0.451-0.896-1.726-0.921-2.196-0.036c-3.236,6.094-6.096,8.462-9.125,9.529c-4.531,1.591-8.239-0.404-10.69-1.726
			c-0.438-0.237-1.047-0.566-1.569-0.805c-0.479-0.22-1.038-0.111-1.402,0.27c-7.917,8.273-22.839,22.84-37.095,14.802l-1.583-0.895
			c-0.374-0.212-0.612-0.602-0.628-1.031l-0.06-1.6c-0.642-7.702-0.623-15.495-1.096-23.213c-0.289-4.72-0.626-9.438-1.058-14.148
			c-0.446-4.859,0.173-9.741-0.413-14.631c-0.112-0.936-0.266-1.893-0.733-2.712c-0.209-0.368-0.494-0.712-0.883-0.88
			c-0.333-0.144-0.711-0.144-1.069-0.085c-1.611,0.268-2.797,1.624-3.73,2.964c-4.078,5.855-5.678,13.287-7.862,19.995
			c-0.68,2.089-1.332,4.186-1.989,6.282c-1.158,3.69-3.701,6.912-5.948,9.984c-2.465,3.369-4.908,6.755-7.349,10.142
			c-12.857,17.843-24.056,33.131-35.935,33.045c-0.076-0.001-0.152-0.008-0.227-0.02l-1.28-0.211
			c-0.065-0.011-0.128-0.026-0.191-0.045c-6.617-2.078-12.921-5.816-19.02-9.433c-18.061-10.708-32.361-19.187-54.555,6.002
			c-0.104,0.118-0.188,0.261-0.241,0.408C372.578,1758.275,366.45,1763.582,359.921,1763.69z M342.039,1722.663
			c0.539,0.827,1.192,1.581,2.001,2.233c4.822,3.887,7.062,11.07,9.296,16.591c1.086,2.686,2.087,5.492,3.456,8.049
			c0.789,1.474,2.21,2.943,3.967,3.178c2.554,0.341,1.765-0.341,2.69-2.342c2.018-4.364,4.393-8.505,6.202-13.001
			c0.778-1.934,1.314-3.984,2.655-5.599c1.454-1.752,2.59-3.735,3.715-5.715c1.001-1.764,2.535-3.098,4.019-4.493
			c3.245-3.05,6.746-5.853,10.561-8.16c5.836-3.528,12.416-5.781,19.276-5.859c11.75-0.134,22.2,5.837,31.997,11.646
			c0.047,0.028,0.094,0.056,0.14,0.083c5.451,3.234,10.622,6.3,15.715,8.088c0.212,0.074,0.437,0.1,0.657,0.054
			c6.657-1.397,18.52-17.855,26.496-28.925c3.697-5.13,7.512-10.422,11.162-14.978c0.097-0.121,0.169-0.26,0.214-0.408
			c11.321-37.336,17.351-44.102,24.503-43.357c8.532,0.862,12.051,11.029,14.242,65.618c0.026,0.641,0.534,1.182,1.174,1.201
			c5.101,0.157,12.157-4.718,22.063-15.128c0.036-0.038,0.076-0.075,0.117-0.108l0.836-0.673c0.052-0.042,0.11-0.082,0.168-0.117
			c3.083-1.838,6.54-2.032,9.893-0.885c5.813,1.99,7.217,1.924,10.022-3.844c1.865-3.835,3.343-7.869,4.741-11.893
			c1.021-2.94,2.805-7.863,5.697-9.496c1.037-0.585,2.16-0.463,3.308-0.397c3.385,0.194,3.406,5.848,3.622,8.402
			c0.149,1.77,0.525,6.25,2.742,6.974c2.31,0.753,5.025-4.381,7.034-5.614c3.158-1.937,5.759-19.211,7.214-23.392
			c1.816-5.218,3.79-10.37,5.997-15.435c7.562-17.36,23.301-25.995,26.596-44.422c3.524-19.703,6.805-39.459,9.824-59.246
			c1.471-9.633,3.002-21.385,3.952-30.249c0.06-0.564-0.283-1.066-0.807-1.283c-3.273-1.355-3.257-5.867-3.213-21.783
			c0.008-4.046,0.024-8.556-0.058-12.665c-0.016-0.779-0.743-1.352-1.501-1.174c-1.253,0.294-2.612,0.345-4.076,0.051
			c-8.196-1.653-16.319-12.858-20.247-83.007c-0.003-0.049-0.008-0.099-0.017-0.147c-2.667-15.486-6.848-32.867-18.125-44.552
			c-3.499-3.626-7.648-6.472-12.19-8.633c-2.089-0.994-4.557-1.534-6.554-2.651c-2.912-1.63-4.921-6.013-8.251-6.84
			c-2.864-0.705-3.701,2.211-5.054,4.447c-5.522,9.161-9.823,16.415-16.626,14.83c-6.283-1.471-9.081-8.379-7.977-43.647
			c0.001-0.043,0-0.088-0.003-0.13c-1.95-27.401-6.462-33.245-7.981-34.449c-0.323-0.256-0.74-0.326-1.136-0.212
			c-9.154,2.639-11.093,18.271-21.938,17.619c-1.994-0.121-4.721-2.402-6.334-3.474c-4.326-2.873-8.232-6.341-12.129-9.757
			c-5.285-4.628-10.749-9.415-16.194-12.025c-7.022-3.366-14.735-5.304-22.548-4.488c-5.359,0.559-14.532,5.79-19.691,3.565
			c-1.889-0.816-2.122-4.052-4.906-4.048c-6.24,0.01-16.882,11.877-24.677,20.571c-11.746,13.096-22.834,25.473-34.099,22.449
			c-8.578-2.301-13.671-12.562-16.516-33.81c-0.109-0.815-0.966-1.31-1.718-0.977c-10.866,4.818-20.486,2.615-28.551,0.776
			c-7.853-1.797-15.376-3.036-22.454,1.767c-5.32,3.611-7.565,9.884-12.236,13.707c-4.016,3.288-11.043-0.278-16.03,2.709
			c-6.389,3.826-11.604,9.963-16.49,15.472c-1.491,1.681-2.978,3.389-4.45,5.077c-9.32,10.701-16.999,19.517-24.743,21.41
			c-0.342,0.084-0.635,0.305-0.801,0.615c-3.895,7.265-7.229,11.677-10.468,15.958c-3.536,4.674-6.81,9.442-9.432,14.699
			c-1.998,4.006-3.69,8.16-5.245,12.355c-0.939,2.535-3.069,8.321-6.858,8.072c-1.795-0.125-2.472-3.018-4.212-3.36
			c-1.607-0.316-3.661,1.339-4.649,2.491c-1.407,1.641-1.873,4.481-2.498,6.511c-0.008,0.025-0.014,0.049-0.02,0.074
			c-5.881,26.133-8.027,28.138-10.511,30.46c-1.416,1.32-3.566,6.36-11.255,49.702c-0.307,1.497-0.603,2.931-0.887,4.309
			c-0.097,0.47,0.072,0.969,0.472,1.233c2.991,1.977,3.152,10.093,0.33,49.492c-0.049,0.689,0.472,1.309,1.163,1.329
			c0.165,0.005,0.332,0.016,0.502,0.032c8.41,0.734,10.541,12.741,15.463,47.352c1.916,13.481,3.898,27.416,6.509,39.226
			c1.785,8.537,4.255,13.405,6.869,18.56c3.6,7.099,7.669,15.117,10.27,33.024c0.038,0.258,0.152,0.514,0.339,0.696
			c1.618,1.574,3.434,1.469,7.581,0.99c5.393-0.615,13.527-1.548,19.699,6.758l0.558,0.753c0.156,0.21,0.241,0.465,0.243,0.727
			l0.007,0.883c0.159,21.139,2.216,28.545,3.508,31.117c0.311,0.619,1.073,0.865,1.681,0.533c1.232-0.673,2.826-1.792,3.919-2.56
			c3.15-2.211,7.849-5.492,12.701-5.151c0.32,0.022,0.635-0.075,0.883-0.278c2.219-1.813,4.613-2.594,7.123-2.34
			c6.776,0.705,9.869,8.335,13.454,17.171c1.513,3.723,3.934,9.693,5.762,11.668c0.102,0.11,2.106-2.554,2.211-2.71
			c1.238-1.84,2.196-3.542,3.874-5.04c0.669-0.598,1.493-1.081,2.39-1.119c0.995-0.042,1.926,0.462,2.768,0.993
			c0.257,0.162,0.516,0.333,0.702,0.574c0.355,0.463,0.474,1.048,0.832,1.516c0.422,0.553,0.755,1.023,1.106,1.656
			c0.304,0.549,0.836,1.644,1.514,1.852c0.946,0.29,4.502-1.654,6.212-2.585c4.554-2.48,10.233-5.564,16.106-3.014
			c3.389,1.472,5.624,4.497,7.123,7.773C339.499,1713.061,339.461,1718.704,342.039,1722.663z"/>
		<path style="fill:#DBEBEB;" d="M195.088,1503.46c1.161,7.429,1.34,14.859-0.206,22.245c-5.295,25.297-5.071,22.669,8.839,44.608
			c7.498,11.827,10.929,24.631,13.308,38.326c2.734,15.737,6.857,34.439,21.79,40.109c9.518,3.614,22.19,1.177,28.363,9.274
			c2.412,3.163,3.245,7.437,6.134,10.172c2.932,2.775,7.266,3.314,11.282,3.715c12.362,1.233,24.724,2.466,37.086,3.699
			c7.082,0.706,14.424,1.495,20.535,5.144c7.297,4.357,11.757,12.119,17.722,18.172c5.966,6.053,15.515,10.499,22.802,6.126
			c7.283-4.371,9.114-15.761,17.289-18.068c6.746-1.904,13.012,3.665,19.406,6.543c14.401,6.482,38.909,0.127,51.955-6.275
			c-4.707-6.652-4.649-16.306,0.136-22.902c4.786-6.596,13.945-9.646,21.73-7.236c-2.398-17.162,10.071-29.385,9.443-43.915
			c-5.683,1.214-32.875-10.176-23.367-15.939c-9.759,5.915-20.264,10.599-31.186,13.906c-0.342-7.05-2.889-16.332-9.947-16.229
			c-4.862,0.071-8.031,4.866-11.195,8.558c-3.164,3.692-9.208,6.628-12.49,3.04c-1.196-1.307-1.625-3.182-2.837-4.475
			c-3.321-3.545-9.204-0.46-12.679,2.935c-3.475,3.394-8.293,7.38-12.556,5.053c-3.81-2.08-3.917-7.77-7.199-10.61
			c-5.155-4.461-12.743,0.973-17.387,5.964c-4.644,4.99-12.797,9.94-17.414,4.925c-2.639-2.866-2.75-8.157-6.447-9.388
			c-5.964-1.985-8.709,9.429-14.99,9.656c-3.545,0.128-5.984-3.41-7.643-6.546c-3.826-7.227-7.334-14.622-10.512-22.156
			c-5.244-0.978-10.968,1.969-13.217,6.807c-7.249-15.895-10.206-28.306-11.728-44.716c-0.699-7.535,2.551-16.805-3.978-23.003
			c-1.498-1.422-12.918-9.532-14.577-3.902c4.029-13.671,11.989-26.158,22.68-35.583c-10.234-3.007-23.08-10.938-19.016-20.801
			c3.099-7.52,15.072-10.213,14.918-18.344c-0.067-3.562-2.66-6.487-4.289-9.655c-5.615-10.914,2.769-26.258,14.986-27.428
			c-7.024-4.487-7.296-15.302-2.792-22.315c4.504-7.013,12.255-11.131,19.666-14.946c-6.654-9.684-0.497-23.277,8.185-31.194
			c8.682-7.916,19.855-13.261,26.704-22.808c2.858-3.985,4.672-9.903,1.323-13.486c-3.043-3.255-8.307-2.477-12.634-1.413
			c-18.657,4.586-37.525,9.919-53.535,20.539c-10.572,7.013-19.562,16.117-28.469,25.151c-6.858,6.956-13.716,13.912-20.573,20.868
			c-14.012,20.519-48.03,50.231-49.165,77.007c-0.239,5.644,1.361,11.185,2.947,16.607
			C186.518,1473.75,192.767,1488.602,195.088,1503.46z"/>
	</g>
</g>
</svg>
